<?xml version="1.0" standalone="no"?>
<svg xmlns:xlink="http://www.w3.org/1999/xlink" id="wave" style="transform:rotate(0deg); transition: 0.3s" viewBox="0 0 1440 490" version="1.1" xmlns="http://www.w3.org/2000/svg"><defs><linearGradient id="sw-gradient-0" x1="0" x2="0" y1="1" y2="0"><stop stop-color="rgba(243, 106, 62, 1)" offset="0%"/><stop stop-color="rgba(255, 179, 11, 1)" offset="100%"/></linearGradient></defs><path style="transform:translate(0, 0px); opacity:1" fill="url(#sw-gradient-0)" d="M0,49L60,89.8C120,131,240,212,360,277.7C480,343,600,392,720,343C840,294,960,147,1080,130.7C1200,114,1320,229,1440,285.8C1560,343,1680,343,1800,310.3C1920,278,2040,212,2160,204.2C2280,196,2400,245,2520,253.2C2640,261,2760,229,2880,204.2C3000,180,3120,163,3240,155.2C3360,147,3480,147,3600,187.8C3720,229,3840,310,3960,302.2C4080,294,4200,196,4320,204.2C4440,212,4560,327,4680,310.3C4800,294,4920,147,5040,73.5C5160,0,5280,0,5400,16.3C5520,33,5640,65,5760,65.3C5880,65,6000,33,6120,73.5C6240,114,6360,229,6480,277.7C6600,327,6720,310,6840,294C6960,278,7080,261,7200,212.3C7320,163,7440,82,7560,65.3C7680,49,7800,98,7920,106.2C8040,114,8160,82,8280,130.7C8400,180,8520,310,8580,375.7L8640,441L8640,490L8580,490C8520,490,8400,490,8280,490C8160,490,8040,490,7920,490C7800,490,7680,490,7560,490C7440,490,7320,490,7200,490C7080,490,6960,490,6840,490C6720,490,6600,490,6480,490C6360,490,6240,490,6120,490C6000,490,5880,490,5760,490C5640,490,5520,490,5400,490C5280,490,5160,490,5040,490C4920,490,4800,490,4680,490C4560,490,4440,490,4320,490C4200,490,4080,490,3960,490C3840,490,3720,490,3600,490C3480,490,3360,490,3240,490C3120,490,3000,490,2880,490C2760,490,2640,490,2520,490C2400,490,2280,490,2160,490C2040,490,1920,490,1800,490C1680,490,1560,490,1440,490C1320,490,1200,490,1080,490C960,490,840,490,720,490C600,490,480,490,360,490C240,490,120,490,60,490L0,490Z"/><defs><linearGradient id="sw-gradient-1" x1="0" x2="0" y1="1" y2="0"><stop stop-color="rgba(243, 106, 62, 1)" offset="0%"/><stop stop-color="rgba(255, 179, 11, 1)" offset="100%"/></linearGradient></defs><path style="transform:translate(0, 50px); opacity:0.9" fill="url(#sw-gradient-1)" d="M0,98L60,114.3C120,131,240,163,360,147C480,131,600,65,720,98C840,131,960,261,1080,277.7C1200,294,1320,196,1440,187.8C1560,180,1680,261,1800,269.5C1920,278,2040,212,2160,196C2280,180,2400,212,2520,212.3C2640,212,2760,180,2880,179.7C3000,180,3120,212,3240,220.5C3360,229,3480,212,3600,171.5C3720,131,3840,65,3960,73.5C4080,82,4200,163,4320,236.8C4440,310,4560,376,4680,400.2C4800,425,4920,408,5040,367.5C5160,327,5280,261,5400,236.8C5520,212,5640,229,5760,228.7C5880,229,6000,212,6120,236.8C6240,261,6360,327,6480,294C6600,261,6720,131,6840,130.7C6960,131,7080,261,7200,302.2C7320,343,7440,294,7560,228.7C7680,163,7800,82,7920,73.5C8040,65,8160,131,8280,147C8400,163,8520,131,8580,114.3L8640,98L8640,490L8580,490C8520,490,8400,490,8280,490C8160,490,8040,490,7920,490C7800,490,7680,490,7560,490C7440,490,7320,490,7200,490C7080,490,6960,490,6840,490C6720,490,6600,490,6480,490C6360,490,6240,490,6120,490C6000,490,5880,490,5760,490C5640,490,5520,490,5400,490C5280,490,5160,490,5040,490C4920,490,4800,490,4680,490C4560,490,4440,490,4320,490C4200,490,4080,490,3960,490C3840,490,3720,490,3600,490C3480,490,3360,490,3240,490C3120,490,3000,490,2880,490C2760,490,2640,490,2520,490C2400,490,2280,490,2160,490C2040,490,1920,490,1800,490C1680,490,1560,490,1440,490C1320,490,1200,490,1080,490C960,490,840,490,720,490C600,490,480,490,360,490C240,490,120,490,60,490L0,490Z"/></svg>